<?xml version="1.0" encoding="UTF-8" standalone="no"?>
<!-- Created with Inkscape (http://www.inkscape.org/) -->

<svg
   xmlns:dc="http://purl.org/dc/elements/1.1/"
   xmlns:cc="http://creativecommons.org/ns#"
   xmlns:rdf="http://www.w3.org/1999/02/22-rdf-syntax-ns#"
   xmlns:svg="http://www.w3.org/2000/svg"
   xmlns="http://www.w3.org/2000/svg"
   xmlns:sodipodi="http://sodipodi.sourceforge.net/DTD/sodipodi-0.dtd"
   xmlns:inkscape="http://www.inkscape.org/namespaces/inkscape"
   width="300"
   height="225"
   id="svg4571"
   version="1.1"
   inkscape:version="0.48.4 r9939"
   sodipodi:docname="snoo-head.svg"
   viewBox="0 0 300 225">
  <defs
     id="defs4573" />
  <sodipodi:namedview
     id="base"
     pagecolor="#ffffff"
     bordercolor="#666666"
     borderopacity="1.0"
     inkscape:pageopacity="0.0"
     inkscape:pageshadow="2"
     inkscape:zoom="1.8101934"
     inkscape:cx="24.371365"
     inkscape:cy="197.67875"
     inkscape:document-units="px"
     inkscape:current-layer="head"
     showgrid="false"
     inkscape:snap-global="false"
     inkscape:snap-bbox="true"
     inkscape:bbox-paths="true"
     inkscape:bbox-nodes="true"
     inkscape:snap-page="true"
     inkscape:window-width="1099"
     inkscape:window-height="721"
     inkscape:window-x="80"
     inkscape:window-y="423"
     inkscape:window-maximized="0"
     borderlayer="true" />
  <metadata
     id="metadata4576">
    <rdf:RDF>
      <cc:Work
         rdf:about="">
        <dc:format>image/svg+xml</dc:format>
        <dc:type
           rdf:resource="http://purl.org/dc/dcmitype/StillImage" />
        <dc:title />
      </cc:Work>
    </rdf:RDF>
  </metadata>
  <g
     id="head">
    <g
       id="g5747"
       transform="matrix(1.68,0,0,1.68,-255.66489,-182.43915)">
      <circle
         transform="matrix(3.4957696,0,0,3.4957696,-60.083031,62.789726)"
         d="m 52.385998,11.836 c 0,1.492274 -1.209727,2.702 -2.702,2.702 -1.492273,0 -2.702,-1.209726 -2.702,-2.702 0,-1.492273 1.209727,-2.7019995 2.702,-2.7019995 1.492273,0 2.702,1.2097265 2.702,2.7019995 z"
         style="fill:#ffffff;stroke:#000000;stroke-width:1.10000002"
         sodipodi:ry="2.7019999"
         sodipodi:rx="2.7019999"
         sodipodi:cy="11.836"
         sodipodi:cx="49.683998"
         id="circle21800"
         r="2.7019999"
         cy="11.836"
         cx="49.683998"
         inkscape:transform-center-x="137.62671"
         inkscape:transform-center-y="-82.943772" />
      <circle
         transform="matrix(3.4957696,0,0,3.4957696,-60.083031,62.789726)"
         d="m 74.488003,11.836 c 0,1.492274 -1.209727,2.702 -2.702,2.702 -1.492273,0 -2.702,-1.209726 -2.702,-2.702 0,-1.492273 1.209727,-2.7019995 2.702,-2.7019995 1.492273,0 2.702,1.2097265 2.702,2.7019995 z"
         style="fill:#ffffff;stroke:#000000;stroke-width:1.10000002"
         sodipodi:ry="2.7019999"
         sodipodi:rx="2.7019999"
         sodipodi:cy="11.836"
         sodipodi:cx="71.786003"
         id="circle21802"
         r="2.7019999"
         cy="11.836"
         cx="71.786003"
         inkscape:transform-center-x="60.363191"
         inkscape:transform-center-y="-82.943772" />
      <path
         style="fill:none;stroke:#000000;stroke-width:3.84534669;stroke-linecap:round;stroke-linejoin:round"
         inkscape:connector-curvature="0"
         id="path21804"
         d="m 178.41935,71.011776 c 0,0 0,0 -18.89114,-4.44662 l -6.9426,21.94645"
         inkscape:transform-center-x="85.725006"
         inkscape:transform-center-y="-109.57105" />
      <circle
         transform="matrix(3.4957696,0,0,3.4957696,-60.083031,62.789726)"
         d="m 72.561,2.789 c 0,1.1763666 -0.953634,2.1300001 -2.13,2.1300001 -1.176367,0 -2.13,-0.9536335 -2.13,-2.1300001 0,-1.1763665 0.953633,-2.13000008 2.13,-2.13000008 1.176366,0 2.13,0.95363358 2.13,2.13000008 z"
         style="fill:#ffffff;stroke:#000000;stroke-width:1.10000002"
         sodipodi:ry="2.1300001"
         sodipodi:rx="2.1300001"
         sodipodi:cy="2.789"
         sodipodi:cx="70.431"
         id="circle21808"
         r="2.1300001"
         cy="2.789"
         cx="70.431"
         inkscape:transform-center-x="65.09997"
         inkscape:transform-center-y="-114.57" />
      <ellipse
         transform="matrix(3.4957696,0,0,3.4957696,-60.083031,62.789726)"
         d="m 72.913999,15.552 c 0,4.411098 -5.47914,7.987 -12.238,7.987 -6.758861,0 -12.238,-3.575902 -12.238,-7.987 0,-4.411098 5.479139,-7.9869999 12.238,-7.9869999 6.75886,0 12.238,3.5759019 12.238,7.9869999 z"
         style="fill:#ffffff;stroke:#000000;stroke-width:1.10000002"
         sodipodi:ry="7.987"
         sodipodi:rx="12.238"
         sodipodi:cy="15.552"
         sodipodi:cx="60.675999"
         id="ellipse21820"
         ry="7.987"
         rx="12.238"
         cy="15.552"
         cx="60.675999"
         inkscape:transform-center-x="99.201206"
         inkscape:transform-center-y="-69.953494" />
      <g
         transform="matrix(3.4957696,0,0,3.4957696,-60.083031,62.789726)"
         id="g21824"
         inkscape:transform-center-x="98.994948"
         inkscape:transform-center-y="-66.550911">
        <path
           inkscape:connector-curvature="0"
           id="circle21826"
           transform="matrix(0.07946,0,0,0.07946,45.637601,-0.68559946)"
           d="m 135.90625,159.65625 c -13.67995,0 -25.15625,11.4763 -25.15625,25.15625 0,13.67995 11.4763,24.78125 25.15625,24.78125 13.67995,0 24.78125,-11.1013 24.78125,-24.78125 0,-13.67995 -11.1013,-25.15625 -24.78125,-25.15625 z"
           style="fill:#ff4500;stroke:none" />
        <path
           inkscape:connector-curvature="0"
           id="circle21828"
           transform="matrix(0.07946,0,0,0.07946,45.637601,-0.68559946)"
           d="m 244.46875,159.65625 c -13.68691,0 -25.1875,11.46934 -25.1875,25.15625 0,13.68691 11.50059,24.78125 25.1875,24.78125 13.68692,0 24.78125,-11.09434 24.78125,-24.78125 0,-13.68691 -11.09433,-25.15625 -24.78125,-25.15625 z"
           style="fill:#ff4500;stroke:none" />
        <g
           id="mouth">
          <path
             d="m 56.507,19.229 c 1.066,1.066 2.786,1.271 4.212,1.271"
             id="path21830"
             inkscape:connector-curvature="0"
             style="fill:none;stroke:#000000;stroke-width:1.10000002;stroke-linecap:round" />
          <path
             d="M 64.963,19.229 C 63.896,20.295 62.177,20.5 60.75,20.5"
             id="path21832"
             inkscape:connector-curvature="0"
             style="fill:none;stroke:#000000;stroke-width:1.10000002;stroke-linecap:round" />
        </g>
      </g>
      <g
         id="leyebrow">
        <rect
           y="58.60107"
           x="150.88809"
           height="6.5746398"
           width="15.837724"
           style="color:#000000;fill:#ffffff;fill-opacity:1;stroke:none;stroke-width:2.08333325;marker:none;visibility:visible;display:inline;overflow:visible;enable-background:accumulate"
           transform="matrix(0.96592583,0.25881905,-0.25881905,0.96592583,0,0)"
           id="rect3067" />
      </g>
      <g
         id="reyebrow">
        <rect
           transform="matrix(-0.96592583,0.25881905,0.25881905,0.96592583,0,0)"
           y="137.29565"
           x="-142.80412"
           height="6.5746398"
           width="15.837724"
           style="color:#000000;fill:#ffffff;fill-opacity:1;stroke:none;stroke-width:2.08333325;marker:none;visibility:visible;display:inline;overflow:visible;enable-background:accumulate"
           id="rect3070" />
      </g>
      <g
         id="mouth-agape"
         style="opacity:0">
        <path
           transform="matrix(0.5952381,0,0,0.5952381,175.7428,122.73825)"
           d="m -25.390625,21.484375 c 0,7.982241 -6.470884,14.453125 -14.453125,14.453125 -7.982241,0 -14.453125,-6.470884 -14.453125,-14.453125 0,-7.982241 6.470884,-14.453125 14.453125,-14.453125 7.982241,0 14.453125,6.470884 14.453125,14.453125 z"
           sodipodi:ry="14.453125"
           sodipodi:rx="14.453125"
           sodipodi:cy="21.484375"
           sodipodi:cx="-39.84375"
           style="color:#000000;fill:#ffffff;fill-opacity:1;fill-rule:nonzero;stroke:#000000;stroke-width:6.46018219;stroke-linecap:round;stroke-linejoin:miter;stroke-miterlimit:4;stroke-opacity:1;stroke-dasharray:none;stroke-dashoffset:0;marker:none;visibility:visible;overflow:visible;enable-background:accumulate"
           sodipodi:type="arc"
           id="path3073" />
      </g>
    </g>
  </g>
</svg>
